<svg width="22" height="25" viewBox="0 0 22 25" fill="none" xmlns="http://www.w3.org/2000/svg">
<g clip-path="url(#clip0_66_47)">
<path d="M7.8125 19.5312C7.8125 19.9609 7.46094 20.3125 7.03125 20.3125C6.60156 20.3125 6.25 19.9609 6.25 19.5312V9.375C6.25 8.94531 6.60156 8.59375 7.03125 8.59375C7.46094 8.59375 7.8125 8.94531 7.8125 9.375V19.5312ZM11.7188 19.5312C11.7188 19.9609 11.3672 20.3125 10.9375 20.3125C10.5078 20.3125 10.1562 19.9609 10.1562 19.5312V9.375C10.1562 8.94531 10.5078 8.59375 10.9375 8.59375C11.3672 8.59375 11.7188 8.94531 11.7188 9.375V19.5312ZM15.625 19.5312C15.625 19.9609 15.2734 20.3125 14.8438 20.3125C14.4141 20.3125 14.0625 19.9609 14.0625 19.5312V9.375C14.0625 8.94531 14.4141 8.59375 14.8438 8.59375C15.2734 8.59375 15.625 8.94531 15.625 9.375V19.5312ZM15.5029 1.21777L17.2949 3.90625H20.7031C21.3525 3.90625 21.875 4.43115 21.875 5.07812C21.875 5.72754 21.3525 6.25 20.7031 6.25H20.3125V21.0938C20.3125 23.252 18.5645 25 16.4062 25H5.46875C3.31152 25 1.5625 23.252 1.5625 21.0938V6.25H1.17188C0.524902 6.25 0 5.72754 0 5.07812C0 4.43115 0.524902 3.90625 1.17188 3.90625H4.58105L6.37207 1.21777C6.87988 0.456885 7.73438 0 8.64746 0H13.2275C14.1406 0 14.9951 0.456934 15.5029 1.21777ZM7.39746 3.90625H14.4775L13.5498 2.51758C13.4766 2.40918 13.3545 2.34375 13.2275 2.34375H8.64746C8.52051 2.34375 8.35449 2.40918 8.3252 2.51758L7.39746 3.90625ZM3.90625 21.0938C3.90625 21.958 4.60596 22.6562 5.46875 22.6562H16.4062C17.2705 22.6562 17.9688 21.958 17.9688 21.0938V6.25H3.90625V21.0938Z" fill="#E94141"/>
</g>
<defs>
<clipPath id="clip0_66_47">
<rect width="21.875" height="25" fill="white"/>
</clipPath>
</defs>
</svg>
