<svg width="30" height="27" viewBox="0 0 30 27" fill="none" xmlns="http://www.w3.org/2000/svg">
<path d="M17.3077 2.01923C17.3077 0.902344 16.2764 0 15 0C13.7236 0 12.6923 0.902344 12.6923 2.01923V11.1058H2.30769C1.03125 11.1058 0 12.0081 0 13.125C0 14.2419 1.03125 15.1442 2.30769 15.1442H12.6923V24.2308C12.6923 25.3477 13.7236 26.25 15 26.25C16.2764 26.25 17.3077 25.3477 17.3077 24.2308V15.1442H27.6923C28.9687 15.1442 30 14.2419 30 13.125C30 12.0081 28.9687 11.1058 27.6923 11.1058H17.3077V2.01923Z" fill="white"/>
</svg>
