<svg width="28" height="25" viewBox="0 0 28 25" fill="none" xmlns="http://www.w3.org/2000/svg">
<path d="M14.3396 0C14.8157 0 15.2504 0.256395 15.4574 0.660277L19.0072 7.55998L26.94 8.66858C27.4057 8.73207 27.7886 9.03974 27.9387 9.45974C28.0836 9.88462 27.9646 10.3486 27.6334 10.6562L21.8792 16.0381L23.2401 23.6323C23.3177 24.0718 23.1263 24.5211 22.7381 24.7799C22.3552 25.0388 21.8015 25.073 21.429 24.863L14.3396 21.2881L7.2089 24.863C6.83632 25.073 6.3292 25.0388 5.9411 24.7799C5.55817 24.5211 5.36671 24.0718 5.39776 23.6323L6.8001 16.0381L1.05153 10.6562C0.717249 10.3486 0.598748 9.88462 0.74571 9.45974C0.892153 9.03974 1.2787 8.73207 1.74391 8.66858L9.67205 7.55998L13.2219 0.660277C13.4341 0.256346 13.8636 0 14.3396 0Z" fill="#FFB43A"/>
</svg>
