<svg width="28" height="25" viewBox="0 0 28 25" fill="none" xmlns="http://www.w3.org/2000/svg">
<path d="M14.3396 0C14.8157 0 15.2504 0.256395 15.4574 0.660277L19.0072 7.55998L26.94 8.66858C27.4057 8.73207 27.7886 9.03974 27.9387 9.45974C28.0836 9.88462 27.9646 10.3486 27.6334 10.6562L21.8792 16.0381L23.2401 23.6323C23.3177 24.0718 23.1263 24.5211 22.7381 24.7799C22.3552 25.0388 21.8015 25.073 21.429 24.863L14.3396 21.2881L7.2089 24.863C6.83632 25.073 6.3292 25.0388 5.9411 24.7799C5.55817 24.5211 5.36671 24.0718 5.39776 23.6323L6.8001 16.0381L1.05153 10.6562C0.717249 10.3486 0.598748 9.88462 0.74571 9.45974C0.892153 9.03974 1.2787 8.73207 1.74391 8.66858L9.67205 7.55998L13.2219 0.660277C13.4341 0.256346 13.8636 0 14.3396 0ZM14.3396 3.85569L11.6229 9.1423C11.4418 9.48904 11.0899 9.73323 10.6863 9.79183L4.5636 10.6416L9.00969 14.7976C9.2943 15.0662 9.42367 15.4521 9.3564 15.8281L8.31111 21.669L13.7549 18.9244C14.1223 18.7388 14.5621 18.7388 14.9244 18.9244L20.3681 21.669L19.3229 15.8281C19.2556 15.4521 19.3901 15.0662 19.6747 14.7976L24.1198 10.6416L17.9981 9.79183C17.5893 9.73323 17.2375 9.48904 17.0615 9.1423L14.3396 3.85569Z" fill="#FFB43A"/>
</svg>
